<svg width="28" height="28" viewBox="0 0 28 28" fill="none" xmlns="http://www.w3.org/2000/svg">
<path d="M0.820312 3.33594H5.85156C6.3038 3.33594 6.67188 3.70401 6.67188 4.15625C6.67188 4.22696 6.56805 3.26694 8.23517 18.2718C7.32108 18.6313 6.67188 19.5222 6.67188 20.5625C6.67188 21.9194 7.77588 23.0228 9.13281 23.0228H10.0941C10.0031 23.2796 9.95312 23.5562 9.95312 23.8438C9.95312 25.2007 11.0571 26.3047 12.4141 26.3047C13.771 26.3047 14.875 25.2007 14.875 23.8438C14.875 23.5562 14.825 23.2796 14.734 23.0228H19.9381C19.8469 23.2796 19.7969 23.5562 19.7969 23.8438C19.7969 25.2007 20.9009 26.3047 22.2578 26.3047C23.6147 26.3047 24.7188 25.2007 24.7188 23.8438C24.7188 22.4868 23.6147 21.3828 22.2578 21.3828H9.13281C8.68057 21.3828 8.3125 21.0147 8.3125 20.5625C8.3125 20.1103 8.68057 19.7422 9.13281 19.7422H24.1492C25.3573 19.7422 26.3782 18.8774 26.5766 17.6859L27.9889 9.21292C28.0284 8.97516 27.9615 8.73184 27.8056 8.54791C27.6497 8.36398 27.4209 8.25781 27.1797 8.25781H24.7188V4.15625C24.7188 3.70316 24.3515 3.33594 23.8984 3.33594H17.3359C16.8828 3.33594 16.5156 3.70316 16.5156 4.15625V4.97656H12.4141C11.961 4.97656 11.5938 5.34378 11.5938 5.79688V8.25781H8.77328L8.31207 4.10626C8.28516 2.7724 7.19183 1.69531 5.85156 1.69531H0.820312C0.367218 1.69531 0 2.06253 0 2.51562C0 2.96872 0.367218 3.33594 0.820312 3.33594ZM13.2344 23.8438C13.2344 24.296 12.8663 24.6641 12.4141 24.6641C11.9618 24.6641 11.5938 24.296 11.5938 23.8438C11.5938 23.3915 11.9618 23.0228 12.4141 23.0228C12.8663 23.0228 13.2344 23.3915 13.2344 23.8438ZM22.2578 24.6641C21.8056 24.6641 21.4375 24.296 21.4375 23.8438C21.4375 23.39 21.8056 23.0234 22.2578 23.0234C22.7101 23.0234 23.0781 23.3915 23.0781 23.8438C23.0781 24.296 22.7101 24.6641 22.2578 24.6641ZM18.1562 4.97656H23.0781V8.25781H18.1562V4.97656ZM13.2344 6.61719H16.5156V8.25781H13.2344V6.61719ZM26.2113 9.89844L24.9584 17.416C24.8922 17.8134 24.5519 18.1016 24.1492 18.1016H9.86703L8.95551 9.89844H26.2113Z" fill="#99A3AE"/>
<path d="M12.4141 16.4609C12.8672 16.4609 13.2344 16.0937 13.2344 15.6406V12.3594C13.2344 11.9063 12.8672 11.5391 12.4141 11.5391C11.961 11.5391 11.5938 11.9063 11.5938 12.3594V15.6406C11.5938 16.0937 11.961 16.4609 12.4141 16.4609Z" fill="#99A3AE"/>
<path d="M17.3359 16.4609C17.789 16.4609 18.1562 16.0937 18.1562 15.6406V12.3594C18.1562 11.9063 17.789 11.5391 17.3359 11.5391C16.8828 11.5391 16.5156 11.9063 16.5156 12.3594V15.6406C16.5156 16.0937 16.8828 16.4609 17.3359 16.4609Z" fill="#99A3AE"/>
<path d="M22.2578 16.4609C22.7109 16.4609 23.0781 16.0937 23.0781 15.6406V12.3594C23.0781 11.9063 22.7109 11.5391 22.2578 11.5391C21.8047 11.5391 21.4375 11.9063 21.4375 12.3594V15.6406C21.4375 16.0937 21.8047 16.4609 22.2578 16.4609Z" fill="#99A3AE"/>
</svg>
