<svg width="40" height="40" viewBox="0 0 40 40" fill="#00b8cc" xmlns="http://www.w3.org/2000/svg">
<g clip-path="url(#clip0)">
<path d="M30.2101 23.7813C27.4298 23.7813 25.168 26.0431 25.168 28.8233C25.168 31.6036 27.4298 33.8654 30.2101 33.8654C32.9908 33.8654 35.2521 31.6036 35.2521 28.8233C35.2521 26.0431 32.9903 23.7813 30.2101 23.7813ZM30.2101 31.3443C28.8198 31.3443 27.6891 30.2136 27.6891 28.8233C27.6891 27.433 28.8198 26.3023 30.2101 26.3023C31.6004 26.3023 32.7311 27.433 32.7311 28.8233C32.7311 30.2137 31.6004 31.3443 30.2101 31.3443Z"/>
<path d="M12.9832 23.7813C10.203 23.7813 7.94117 26.0431 7.94117 28.8233C7.94117 31.6036 10.203 33.8654 12.9832 33.8654C15.7634 33.8654 18.0252 31.6036 18.0252 28.8233C18.0252 26.0431 15.7634 23.7813 12.9832 23.7813ZM12.9832 31.3443C11.5929 31.3443 10.4622 30.2136 10.4622 28.8233C10.4622 27.433 11.5929 26.3023 12.9832 26.3023C14.3731 26.3023 15.5042 27.433 15.5042 28.8233C15.5042 30.2137 14.3735 31.3443 12.9832 31.3443Z"/>
<path d="M33.6055 9.34942C33.3912 8.92379 32.9555 8.65528 32.479 8.65528H25.8403V11.1763H31.7016L35.134 18.0032L37.387 16.8704L33.6055 9.34942Z"/>
<path d="M26.4286 27.6049H16.8908V30.1259H26.4286V27.6049Z"/>
<path d="M9.20164 27.6049H4.83195C4.1357 27.6049 3.57148 28.1692 3.57148 28.8654C3.57148 29.5616 4.13578 30.1259 4.83195 30.1259H9.20172C9.89797 30.1259 10.4622 29.5616 10.4622 28.8654C10.4622 28.1691 9.89789 27.6049 9.20164 27.6049Z"/>
<path d="M39.7353 19.899L37.2559 16.7057C37.0177 16.3981 36.6501 16.2183 36.2606 16.2183H27.1009V7.39475C27.1009 6.6985 26.5366 6.13428 25.8404 6.13428H4.83195C4.1357 6.13428 3.57148 6.69857 3.57148 7.39475C3.57148 8.09092 4.13578 8.65521 4.83195 8.65521H24.5798V17.4787C24.5798 18.175 25.1441 18.7392 25.8403 18.7392H35.6433L37.479 21.1039V27.6047H33.9916C33.2953 27.6047 32.7311 28.169 32.7311 28.8652C32.7311 29.5615 33.2954 30.1257 33.9916 30.1257H38.7395C39.4357 30.1257 39.9999 29.5614 40 28.8652V20.6721C40 20.3922 39.9067 20.12 39.7353 19.899Z"/>
<path d="M9.11766 21.2183H3.3193C2.62305 21.2183 2.05883 21.7826 2.05883 22.4788C2.05883 23.175 2.62312 23.7393 3.3193 23.7393H9.11758C9.81383 23.7393 10.378 23.175 10.378 22.4788C10.3781 21.7826 9.81383 21.2183 9.11766 21.2183Z"/>
<path d="M12.0168 16.2603H1.26047C0.564297 16.2603 0 16.8246 0 17.5208C0 18.2171 0.564297 18.7813 1.26047 18.7813H12.0168C12.713 18.7813 13.2773 18.217 13.2773 17.5208C13.2773 16.8246 12.713 16.2603 12.0168 16.2603Z"/>
<path d="M14.0756 11.3023H3.3193C2.62305 11.3023 2.05883 11.8666 2.05883 12.5628C2.05883 13.259 2.62312 13.8233 3.3193 13.8233H14.0756C14.7719 13.8233 15.3361 13.259 15.3361 12.5628C15.3362 11.8666 14.7719 11.3023 14.0756 11.3023Z"/>
</g>
<defs>
<clipPath id="clip0">
<rect width="40" height="40" fill="white"/>
</clipPath>
</defs>
</svg>
