<svg width="32" height="32" viewBox="0 0 32 32" fill="#00b8cc" xmlns="http://www.w3.org/2000/svg">
<path d="M22.7591 1.37207H3.83356C1.71987 1.37207 0 3.09195 0 5.20563C0 7.31932 1.71987 9.0392 3.83356 9.0392V6.61801C3.05475 6.61801 2.42119 5.98445 2.42119 5.20563C2.42119 4.42682 3.05475 3.79326 3.83356 3.79326H21.5486V7.82857H23.9697V2.5827C23.9697 1.91401 23.4278 1.37207 22.7591 1.37207Z"/>
<path d="M30.7894 6.61801L3.83356 6.61801C3.05475 6.61801 2.42119 5.98445 2.42119 5.20563C2.42119 4.53701 1.87925 3.99507 1.21063 3.99507C0.542 3.99507 0 4.53695 0 5.20563V26.7945C0 28.9082 1.71987 30.6281 3.83356 30.6281H30.7894C31.458 30.6281 32 30.0861 32 29.4175V7.82858C32 7.15995 31.4581 6.61801 30.7894 6.61801ZM29.5788 28.2069H3.83356C3.05475 28.2069 2.42119 27.5733 2.42119 26.7945V8.76964C2.85819 8.94358 3.33519 9.0392 3.83356 9.0392L29.5788 9.0392V28.2069Z"/>
<path d="M25.3821 20.8222C24.3135 20.8222 23.4447 19.9534 23.4447 18.8853C23.4447 17.8172 24.3139 16.9484 25.3821 16.9484H30.749V14.5272H25.3821C22.9786 14.5272 21.0235 16.4823 21.0235 18.8853C21.0235 21.2883 22.9786 23.2434 25.3821 23.2434H30.7894V20.8222H25.3821Z"/>
</svg>
