<svg width="332" height="332" viewBox="0 0 332 332" fill="none" xmlns="http://www.w3.org/2000/svg">
<g filter="url(#filter0_d)">
<path d="M159.275 52.7916C162.986 49.0695 169.014 49.0695 172.725 52.7916L180.402 60.492C183.121 63.2194 187.218 64.0344 190.774 62.5552L200.814 58.3788C205.667 56.3601 211.236 58.667 213.24 63.5259L217.386 73.578C218.854 77.1384 222.328 79.4593 226.179 79.4535L237.052 79.4369C242.308 79.4289 246.571 83.6916 246.563 88.9475L246.547 99.8209C246.541 103.672 248.862 107.146 252.422 108.614L262.474 112.76C267.333 114.764 269.64 120.333 267.621 125.186L263.445 135.226C261.966 138.782 262.781 142.879 265.508 145.598L273.208 153.275C276.931 156.986 276.931 163.014 273.208 166.725L265.508 174.402C262.781 177.121 261.966 181.218 263.445 184.774L267.621 194.814C269.64 199.667 267.333 205.236 262.474 207.24L252.422 211.386C248.862 212.854 246.541 216.328 246.547 220.179L246.563 231.052C246.571 236.308 242.308 240.571 237.052 240.563L226.179 240.547C222.328 240.541 218.854 242.862 217.386 246.422L213.24 256.474C211.236 261.333 205.667 263.64 200.814 261.621L190.774 257.445C187.218 255.966 183.121 256.781 180.402 259.508L172.725 267.208C169.014 270.931 162.986 270.931 159.275 267.208L151.598 259.508C148.879 256.781 144.782 255.966 141.226 257.445L131.186 261.621C126.333 263.64 120.764 261.333 118.76 256.474L114.614 246.422C113.146 242.862 109.672 240.541 105.821 240.547L94.9475 240.563C89.6916 240.571 85.4289 236.308 85.4369 231.052L85.4535 220.179C85.4593 216.328 83.1384 212.854 79.578 211.386L69.5259 207.24C64.667 205.236 62.3601 199.667 64.3788 194.814L68.5552 184.774C70.0344 181.218 69.2194 177.121 66.492 174.402L58.7916 166.725C55.0695 163.014 55.0695 156.986 58.7916 153.275L66.492 145.598C69.2194 142.879 70.0344 138.782 68.5552 135.226L64.3788 125.186C62.3601 120.333 64.667 114.764 69.5259 112.76L79.578 108.614C83.1384 107.146 85.4593 103.672 85.4535 99.8209L85.4369 88.9475C85.4289 83.6916 89.6916 79.4289 94.9475 79.4369L105.821 79.4535C109.672 79.4593 113.146 77.1384 114.614 73.578L118.76 63.5259C120.764 58.667 126.333 56.3601 131.186 58.3788L141.226 62.5552C144.782 64.0344 148.879 63.2194 151.598 60.492L159.275 52.7916Z" fill="white"/>
</g>
<defs>
<filter id="filter0_d" x="0" y="0" width="332" height="332" filterUnits="userSpaceOnUse" color-interpolation-filters="sRGB">
<feFlood flood-opacity="0" result="BackgroundImageFix"/>
<feColorMatrix in="SourceAlpha" type="matrix" values="0 0 0 0 0 0 0 0 0 0 0 0 0 0 0 0 0 0 127 0"/>
<feOffset dy="6"/>
<feGaussianBlur stdDeviation="28"/>
<feColorMatrix type="matrix" values="0 0 0 0 0.00159234 0 0 0 0 0.118218 0 0 0 0 0.382161 0 0 0 0.08 0"/>
<feBlend mode="normal" in2="BackgroundImageFix" result="effect1_dropShadow"/>
<feBlend mode="normal" in="SourceGraphic" in2="effect1_dropShadow" result="shape"/>
</filter>
</defs>
</svg>
