<svg width="24" height="24" viewBox="0 0 24 24" fill="none" xmlns="http://www.w3.org/2000/svg">
<g clip-path="url(#clip0)">
<path d="M5.45455 8.72727H4.36363V1.09092C4.36363 0.488437 3.8752 0 3.27271 0C2.67023 0 2.18179 0.488437 2.18179 1.09092V8.72727H1.09092C0.488437 8.72727 0 9.2157 0 9.81818V14.1818C0 14.7843 0.488437 15.2727 1.09092 15.2727H2.18184V22.9091C2.18184 23.5116 2.67028 24 3.27276 24C3.87524 24 4.36368 23.5116 4.36368 22.9091V15.2727H5.4546C6.05708 15.2727 6.54552 14.7843 6.54552 14.1818V9.81814C6.54542 9.2157 6.05699 8.72727 5.45455 8.72727ZM2.18179 13.0909V10.9091H4.36359V13.0909H2.18179Z" fill="#99A3AE"/>
<path d="M22.9092 7.27274H21.8182V1.09092C21.8183 0.488437 21.3298 0 20.7274 0C20.1249 0 19.6364 0.488437 19.6364 1.09092V7.27274H18.5455C17.943 7.27274 17.4546 7.76117 17.4546 8.36366V12.7273C17.4546 13.3298 17.943 13.8182 18.5455 13.8182H19.6364V22.9091C19.6364 23.5116 20.1249 24 20.7274 24C21.3298 24 21.8183 23.5116 21.8183 22.9091V13.8182H22.9092C23.5117 13.8182 24.0001 13.3297 24.0001 12.7272V8.36361C24.0001 7.76117 23.5116 7.27274 22.9092 7.27274ZM19.6365 11.6363V9.45453H21.8183V11.6363H19.6365Z" fill="#99A3AE"/>
<path d="M14.1816 10.1818H13.0907V1.09092C13.0907 0.488437 12.6023 0 11.9998 0C11.3973 0 10.9089 0.488437 10.9089 1.09092V10.1818H9.81797C9.21549 10.1818 8.72705 10.6702 8.72705 11.2727V15.6363C8.72705 16.2388 9.21549 16.7273 9.81797 16.7273H10.9089V22.9091C10.9089 23.5115 11.3973 24 11.9998 24C12.6023 24 13.0907 23.5115 13.0907 22.909V16.7273H14.1817C14.7841 16.7273 15.2726 16.2388 15.2726 15.6363V11.2727C15.2725 10.6702 14.7841 10.1818 14.1816 10.1818ZM13.0907 14.5454H10.9089V12.3636H13.0907V14.5454Z" fill="#99A3AE"/>
</g>
<defs>
<clipPath id="clip0">
<rect width="24" height="24" fill="white"/>
</clipPath>
</defs>
</svg>
