<svg width="40" height="40" viewBox="0 0 40 40" fill="none" xmlns="http://www.w3.org/2000/svg">
<path d="M28.0415 24.6885C25.3706 24.6885 23.1978 26.8613 23.1978 29.5322C23.1978 32.2031 25.3706 34.376 28.0415 34.376C30.7124 34.376 32.8853 32.2031 32.8853 29.5322C32.8853 26.8613 30.7124 24.6885 28.0415 24.6885ZM28.0415 32.8135C26.2321 32.8135 24.7603 31.3416 24.7603 29.5322C24.7603 27.7228 26.2321 26.251 28.0415 26.251C29.8509 26.251 31.3228 27.7228 31.3228 29.5322C31.3228 31.3416 29.8509 32.8135 28.0415 32.8135Z" fill="#477BFF"/>
<path d="M37.7292 26.9851H36.8069C36.6199 26.3384 36.3623 25.7168 36.0367 25.1269L36.6855 24.4781C36.832 24.3316 36.9144 24.1329 36.9144 23.9254C36.9144 23.7182 36.832 23.5195 36.6852 23.373L34.1943 20.884C33.8895 20.5792 33.3948 20.5792 33.0899 20.884L32.442 21.5319C31.8521 21.2063 31.2302 20.9487 30.5835 20.762V19.8455C30.5835 19.7247 30.5551 19.6105 30.506 19.508L32.9797 16.9842C33.1229 16.8383 33.2031 16.6421 33.2031 16.4373V12.3437C33.2031 11.9122 32.8534 11.5624 32.4219 11.5624H21.442V8.81342C22.5726 8.50854 23.407 7.47461 23.407 6.24902C23.407 4.78418 22.2156 3.59277 20.7507 3.59277C19.2862 3.59277 18.0945 4.78418 18.0945 6.24902C18.0945 7.40839 18.8416 8.39594 19.8795 8.75757V11.5624H10.7092C10.7703 11.3067 10.802 11.0427 10.802 10.7733C10.802 8.91656 9.29169 7.40625 7.43469 7.40625C5.578 7.40625 4.06769 8.91656 4.06769 10.7733C4.06769 11.0427 4.09943 11.3067 4.16077 11.5624H2.42188C1.99036 11.5624 1.64062 11.9122 1.64062 12.3437V16.4373C1.64062 16.6421 1.72089 16.8383 1.86401 16.9842L4.88647 20.0677C5.18829 20.3759 5.68298 20.3808 5.99121 20.079C6.29944 19.7769 6.30432 19.2822 6.0022 18.9739L3.20312 16.1184V13.1249H9.48761H9.48853H9.48914H31.6406V16.1184L28.7531 19.0643H26.2811C25.8496 19.0643 25.4999 19.414 25.4999 19.8455V20.762C24.8529 20.9487 24.2313 21.2063 23.6414 21.5319L22.9938 20.884C22.6886 20.5792 22.1942 20.5789 21.889 20.884L19.3982 23.373C19.2514 23.5195 19.169 23.7182 19.169 23.9254C19.169 24.1326 19.2514 24.3316 19.3979 24.4781L20.0467 25.1266C19.7211 25.7168 19.4635 26.3384 19.2764 26.9851H18.3563C17.9248 26.9851 17.5754 27.3345 17.5751 27.7657L17.5729 31.2872C17.5729 31.4944 17.6553 31.6934 17.8018 31.8398C17.9483 31.9866 18.147 32.069 18.3542 32.069H19.2764C19.4635 32.7157 19.7211 33.3373 20.0467 33.9272L19.3939 34.58C19.2743 34.6996 19.202 34.8489 19.1763 35.0039L14.2886 37.8576V27.7468C14.2886 27.5424 14.2084 27.3461 14.0652 27.2L10.9229 23.9944C10.6207 23.6862 10.1263 23.681 9.81812 23.9831C9.50989 24.2852 9.505 24.7799 9.80682 25.0881L12.7258 28.066V39.2187C12.7258 39.4985 12.8757 39.757 13.1183 39.8962C13.2385 39.9655 13.3728 39.9999 13.5071 39.9999C13.6432 39.9999 13.7796 39.9645 13.9011 39.8934L20.0256 36.3174L21.8826 38.1759C22.0291 38.3224 22.2281 38.4048 22.4353 38.4048C22.6425 38.4048 22.8412 38.3224 22.9877 38.1759L23.6414 37.5222C24.2313 37.8478 24.8529 38.1057 25.4999 38.2925V39.2187C25.4999 39.6502 25.8496 39.9999 26.2811 39.9999H29.8022C30.2338 39.9999 30.5835 39.6502 30.5835 39.2187V38.2925C31.2302 38.1057 31.8521 37.8478 32.442 37.5222L33.0957 38.1759C33.2422 38.3224 33.4412 38.4048 33.6484 38.4048C33.8556 38.4048 34.0543 38.3224 34.2007 38.1756L36.6898 35.6848C36.9946 35.3796 36.9946 34.8852 36.6898 34.5803L36.0367 33.9276C36.3623 33.3373 36.6202 32.7157 36.8069 32.069H37.7292C38.1604 32.069 38.5104 31.7193 38.5104 31.2878V27.7664C38.5104 27.3348 38.1607 26.9851 37.7292 26.9851ZM20.751 5.15527C21.3541 5.15527 21.8448 5.64569 21.8448 6.24902C21.8448 6.85205 21.3541 7.34277 20.751 7.34277C20.1477 7.34277 19.6573 6.85205 19.6573 6.24902C19.6573 5.64569 20.1477 5.15527 20.751 5.15527ZM5.63019 10.7733C5.63019 9.77838 6.43982 8.96875 7.435 8.96875C8.43018 8.96875 9.23981 9.77838 9.23981 10.7733C9.23981 11.0513 9.17633 11.3186 9.05701 11.5624H5.81299C5.69366 11.3186 5.63019 11.0513 5.63019 10.7733ZM36.9479 30.5065H36.1984C35.8301 30.5065 35.5121 30.7638 35.4346 31.1236C35.2429 32.0156 34.8941 32.8573 34.3979 33.6254C34.198 33.9346 34.241 34.3414 34.5016 34.602L35.0327 35.1327L33.6478 36.5185L33.1165 35.9869C32.8561 35.7266 32.449 35.6835 32.1399 35.8831C31.3721 36.3793 30.5304 36.7281 29.6381 36.9198C29.2783 36.9973 29.021 37.3156 29.021 37.6837V38.4374H27.0624V37.684C27.0624 37.3156 26.8051 36.9973 26.445 36.9201C25.553 36.7281 24.7113 36.3796 23.9435 35.8834C23.6343 35.6835 23.2275 35.7266 22.9669 35.9872L22.4356 36.5185L21.0507 35.133L21.5817 34.602C21.8423 34.3417 21.8854 33.9346 21.6855 33.6254C21.1893 32.8576 20.8405 32.0159 20.6488 31.1236C20.5716 30.7638 20.2533 30.5065 19.8849 30.5065H19.136L19.137 28.5476H19.8849C20.2533 28.5476 20.5716 28.2906 20.6488 27.9305C20.8405 27.0385 21.1893 26.1968 21.6855 25.429C21.8854 25.1196 21.8423 24.7128 21.5817 24.4525L21.0556 23.926L22.4411 22.5414L22.9669 23.0673C23.2275 23.3276 23.6343 23.3709 23.9435 23.171C24.7113 22.6748 25.553 22.326 26.445 22.1343C26.8051 22.0568 27.0621 21.7388 27.0621 21.3705V20.6268H29.021V21.3705C29.021 21.7388 29.2783 22.0568 29.6381 22.1343C30.5304 22.326 31.3721 22.6748 32.1399 23.171C32.449 23.3709 32.8558 23.3279 33.1165 23.0673L33.6423 22.5414L35.0278 23.926L34.5013 24.4525C34.241 24.7128 34.1977 25.1196 34.3976 25.4287C34.8941 26.1968 35.2426 27.0385 35.4343 27.9305C35.5118 28.2906 35.8298 28.5476 36.1981 28.5476H36.9479V30.5065Z" fill="#477BFF"/>
<path d="M12.6084 5.83252V8.77594C12.6084 9.20746 12.9581 9.55719 13.3896 9.55719C13.8209 9.55719 14.1709 9.20746 14.1709 8.77594V5.83252C15.4297 5.48859 16.3584 4.33533 16.3584 2.96875C16.3584 1.33179 15.0266 0 13.3896 0C11.7527 0 10.4209 1.33179 10.4209 2.96875C10.4209 4.33533 11.3492 5.48859 12.6084 5.83252ZM13.3896 1.5625C14.1648 1.5625 14.7959 2.1933 14.7959 2.96875C14.7959 3.7442 14.1648 4.375 13.3896 4.375C12.6142 4.375 11.9834 3.7442 11.9834 2.96875C11.9834 2.1933 12.6142 1.5625 13.3896 1.5625Z" fill="#477BFF"/>
<path d="M27.4868 5.83252V9.14062C27.4868 9.57214 27.8369 9.92188 28.2681 9.92188C28.6996 9.92188 29.0493 9.57214 29.0493 9.14062V5.83252C30.3085 5.48859 31.2368 4.33533 31.2368 2.96875C31.2368 1.33179 29.905 0 28.2681 0C26.6311 0 25.2993 1.33179 25.2993 2.96875C25.2993 4.33533 26.228 5.48859 27.4868 5.83252ZM28.2681 1.5625C29.0435 1.5625 29.6743 2.1933 29.6743 2.96875C29.6743 3.7442 29.0435 4.375 28.2681 4.375C27.4926 4.375 26.8618 3.7442 26.8618 2.96875C26.8618 2.1933 27.4926 1.5625 28.2681 1.5625Z" fill="#477BFF"/>
<path d="M7.9043 21.25C7.69891 21.25 7.4975 21.3336 7.35193 21.4789C7.20667 21.6241 7.12305 21.8259 7.12305 22.0312C7.12305 22.2366 7.20667 22.4384 7.35193 22.5836C7.4975 22.7289 7.69891 22.8125 7.9043 22.8125C8.1106 22.8125 8.3114 22.7289 8.45667 22.5836C8.60284 22.4384 8.68555 22.2366 8.68555 22.0312C8.68555 21.8259 8.60284 21.6241 8.45667 21.4789C8.3114 21.3336 8.1106 21.25 7.9043 21.25Z" fill="#477BFF"/>
</svg>
