<svg width="20" height="20" viewBox="0 0 20 20" fill="none" xmlns="http://www.w3.org/2000/svg">
<path d="M16.9478 5.3331H12.4785C12.9494 4.76883 13.2333 4.04327 13.2333 3.25256C13.2333 1.45905 11.7743 0 9.98093 0C8.18741 0 6.72836 1.45905 6.72836 3.25256C6.72836 4.04327 7.01233 4.76883 7.48322 5.3331H3.01392L0.234375 20H19.7273L16.9478 5.3331ZM9.98093 1.17188C11.1281 1.17188 12.0615 2.10526 12.0615 3.25256C12.0615 4.39972 11.1281 5.3331 9.98093 5.3331C8.83362 5.3331 7.90024 4.39972 7.90024 3.25256C7.90024 2.10526 8.83362 1.17188 9.98093 1.17188ZM3.98453 6.50497H15.9772L18.3125 18.8281H1.64917L3.98453 6.50497Z" fill="#477BFF"/>
<path d="M10.0044 10.3354H8.67429L6.8147 12.1924V10.3354H5.85889V15.0187H6.8147V13.418L7.29672 12.9481L8.75348 15.0187H9.9873L7.97925 12.2913L10.0044 10.3354Z" fill="#477BFF"/>
<path d="M11.8955 13.3341H13.1584V13.8477C13.057 13.9218 12.9187 13.9944 12.7462 14.0641C12.5362 14.1491 12.318 14.1921 12.098 14.1921C11.846 14.1921 11.6049 14.1358 11.3811 14.0247C11.1653 13.9178 11.0051 13.7579 10.8916 13.5357C10.7744 13.3067 10.7151 13.0129 10.7151 12.6628C10.7151 12.3791 10.7654 12.1131 10.8641 11.8731C10.92 11.7396 10.9995 11.6152 11.1005 11.5031C11.1968 11.3963 11.3279 11.3078 11.4897 11.2402C11.6547 11.1714 11.8563 11.1364 12.0891 11.1364C12.2788 11.1364 12.4526 11.1692 12.6056 11.2339C12.7512 11.2954 12.8629 11.3761 12.9375 11.4736C13.0184 11.5792 13.0884 11.7315 13.1458 11.9264L13.1995 12.1087L14.0795 11.8673L14.032 11.6828C13.9513 11.3685 13.8298 11.1077 13.6708 10.9074C13.5077 10.7018 13.2823 10.5404 13.0007 10.4275C12.7278 10.3181 12.4202 10.2627 12.0862 10.2627C11.6281 10.2627 11.2159 10.3591 10.8608 10.5493C10.4973 10.744 10.2153 11.0447 10.0232 11.4431C9.8363 11.8304 9.7417 12.2524 9.7417 12.698C9.7417 13.149 9.83752 13.5644 10.0269 13.9323C10.2205 14.3089 10.5109 14.6005 10.8902 14.7991C11.2615 14.9937 11.6786 15.0924 12.1302 15.0924C12.4648 15.0924 12.7954 15.0315 13.113 14.9113C13.4275 14.7924 13.7358 14.6133 14.0296 14.3791L14.1027 14.3209V12.4395L11.8955 12.443V13.3341Z" fill="#477BFF"/>
</svg>
