<svg width="20" height="20" viewBox="0 0 20 20" fill="none" xmlns="http://www.w3.org/2000/svg">
<g clip-path="url(#clip0)">
<path d="M15.9999 13.8848C14.8145 13.8848 14.2026 14.3151 13.6629 14.6945C13.1888 15.0278 12.8143 15.291 11.9997 15.291C11.1852 15.291 10.8107 15.0278 10.3368 14.6945C9.79706 14.3149 9.18518 13.8848 7.99973 13.8848C6.81442 13.8848 6.20255 14.3151 5.66284 14.6945C5.1889 15.0278 4.81445 15.291 3.99994 15.291C3.18542 15.291 2.81097 15.0278 2.33704 14.6945C1.79718 14.3151 1.1853 13.8848 0 13.8848V15.0566C0.814667 15.0566 1.18896 15.3199 1.6629 15.6533C2.20276 16.0327 2.81448 16.4629 3.99994 16.4629C5.18524 16.4629 5.79712 16.0327 6.33682 15.6533C6.81076 15.3199 7.18521 15.0566 7.99973 15.0566C8.81439 15.0566 9.18869 15.3199 9.66278 15.6533C10.2025 16.0327 10.8144 16.4629 11.9997 16.4629C13.1851 16.4629 13.797 16.0327 14.3369 15.6533C14.8108 15.32 15.1852 15.0566 15.9999 15.0566C16.8146 15.0566 17.1889 15.3199 17.663 15.6533C18.2027 16.0327 18.8145 16.4629 20 16.4629V15.291C19.1853 15.291 18.8109 15.0278 18.3369 14.6945C17.7971 14.3151 17.1852 13.8848 15.9999 13.8848Z" fill="#477BFF"/>
<path d="M15.9999 6.97217C14.8145 6.97217 14.2026 7.40231 13.6629 7.7818C13.1888 8.11505 12.8143 8.37842 11.9997 8.37842C11.1852 8.37842 10.8107 8.11505 10.3368 7.7818C9.79706 7.40231 9.18518 6.97217 7.99973 6.97217C6.81442 6.97217 6.20255 7.40231 5.66284 7.7818C5.1889 8.11505 4.81445 8.37842 3.99994 8.37842C3.18542 8.37842 2.81097 8.11505 2.33704 7.7818C1.79718 7.40231 1.1853 6.97217 0 6.97217V8.14404C0.814667 8.14404 1.18896 8.40726 1.6629 8.74051C2.20276 9.12015 2.81448 9.55029 3.99994 9.55029C5.18524 9.55029 5.79712 9.12 6.33682 8.74051C6.81076 8.40726 7.18521 8.14404 7.99973 8.14404C8.81439 8.14404 9.18869 8.40726 9.66278 8.74051C10.2025 9.12015 10.8144 9.55029 11.9997 9.55029C13.1851 9.55029 13.797 9.12 14.3369 8.74051C14.8108 8.40726 15.1852 8.14404 15.9999 8.14404C16.8146 8.14404 17.1889 8.40726 17.663 8.74051C18.2027 9.12015 18.8145 9.55029 20 9.55029V8.37842C19.1853 8.37842 18.8109 8.11505 18.3369 7.7818C17.7971 7.40231 17.1852 6.97217 15.9999 6.97217Z" fill="#477BFF"/>
<path d="M15.9999 10.4287C14.8145 10.4287 14.2026 10.8589 13.6629 11.2383C13.1888 11.5716 12.8143 11.835 11.9997 11.835C11.1852 11.835 10.8107 11.5716 10.3368 11.2383C9.79706 10.8589 9.18518 10.4287 7.99973 10.4287C6.81442 10.4287 6.20255 10.8589 5.66284 11.2383C5.1889 11.5716 4.81445 11.835 3.99994 11.835C3.18542 11.835 2.81097 11.5716 2.33704 11.2383C1.79718 10.8589 1.1853 10.4287 0 10.4287V11.6006C0.814667 11.6006 1.18896 11.8638 1.6629 12.1971C2.20276 12.5765 2.81448 13.0068 3.99994 13.0068C5.18524 13.0068 5.79712 12.5765 6.33682 12.1971C6.81076 11.8638 7.18521 11.6006 7.99973 11.6006C8.81439 11.6006 9.18869 11.8638 9.66278 12.1971C10.2025 12.5765 10.8144 13.0068 11.9997 13.0068C13.1851 13.0068 13.797 12.5765 14.3369 12.1971C14.8108 11.8638 15.1852 11.6006 15.9999 11.6006C16.8146 11.6006 17.1889 11.8638 17.663 12.1971C18.2027 12.5765 18.8145 13.0068 20 13.0068V11.835C19.1853 11.835 18.8109 11.5716 18.3369 11.2383C17.7971 10.8589 17.1852 10.4287 15.9999 10.4287Z" fill="#477BFF"/>
<path d="M18.3369 4.32541C17.7971 3.94577 17.1852 3.51562 15.9999 3.51562C14.8145 3.51562 14.2026 3.94577 13.6629 4.32541C13.1888 4.65866 12.8143 4.92188 11.9997 4.92188C11.1852 4.92188 10.8107 4.65866 10.3368 4.32541C9.79706 3.94577 9.18518 3.51562 7.99973 3.51562C6.81442 3.51562 6.20255 3.94577 5.66284 4.32541C5.1889 4.65866 4.81445 4.92188 3.99994 4.92188C3.18542 4.92188 2.81097 4.65866 2.33704 4.32541C1.79718 3.94577 1.1853 3.51562 0 3.51562V4.6875C0.814667 4.6875 1.18896 4.95071 1.6629 5.28397C2.20276 5.6636 2.81448 6.09375 3.99994 6.09375C5.18524 6.09375 5.79712 5.6636 6.33682 5.28397C6.81076 4.95071 7.18521 4.6875 7.99973 4.6875C8.81439 4.6875 9.18869 4.95071 9.66278 5.28397C10.2025 5.6636 10.8144 6.09375 11.9997 6.09375C13.1851 6.09375 13.797 5.6636 14.3369 5.28397C14.8108 4.95071 15.1852 4.6875 15.9999 4.6875C16.8146 4.6875 17.1889 4.95071 17.663 5.28397C18.2027 5.6636 18.8145 6.09375 20 6.09375V4.92188C19.1853 4.92188 18.8109 4.65866 18.3369 4.32541Z" fill="#477BFF"/>
</g>
<defs>
<clipPath id="clip0">
<rect width="20" height="20" fill="white"/>
</clipPath>
</defs>
</svg>
