<svg width="20" height="20" viewBox="0 0 20 20" fill="none" xmlns="http://www.w3.org/2000/svg">
<path fill-rule="evenodd" clip-rule="evenodd" d="M12.5048 10.0061C12.5046 11.3872 11.3804 12.5057 9.99318 12.5048C8.60609 12.504 7.49399 11.3796 7.49494 9.97908C7.49585 8.60431 8.62435 7.49434 10.0201 7.49522C11.3896 7.49614 12.505 8.62326 12.5048 10.0061ZM15.8183 5.00557C15.8182 4.55492 15.4516 4.18508 15.0018 4.18195C14.545 4.17878 14.1715 4.54899 14.1713 5.00518C14.1712 5.46099 14.5451 5.83219 15.0014 5.82919C15.4506 5.82622 15.8183 5.45546 15.8183 5.00557ZM10.0008 14.1538C12.287 14.1536 14.1529 12.2912 14.1536 10.0088C14.1544 7.71109 12.2968 5.8473 10.0053 5.84661C7.7088 5.84594 5.84617 7.70462 5.8457 9.99749C5.8452 12.291 7.7076 14.1539 10.0008 14.1538ZM9.99227 17.4993C8.89164 17.4993 7.791 17.4993 6.69036 17.4993C4.58677 17.4991 2.82992 15.9774 2.53703 13.8982C2.51325 13.7295 2.50193 13.5575 2.50176 13.3871C2.49949 11.1304 2.49991 8.87379 2.50035 6.61716C2.50071 4.68231 3.94377 2.93792 5.84549 2.58545C6.12548 2.53356 6.41393 2.50515 6.69858 2.50432C8.91833 2.49782 11.1381 2.50049 13.3579 2.50082C15.3834 2.50113 17.1378 4.00622 17.4449 6.01208C17.4783 6.23039 17.497 6.45323 17.4974 6.67402C17.5011 8.90754 17.5 11.141 17.4996 13.3745C17.4991 15.3765 15.9807 17.1432 13.9977 17.4433C13.7702 17.4777 13.5381 17.4957 13.3081 17.4968C12.2028 17.5023 11.0975 17.4993 9.99227 17.4993Z" fill="#4C5E70"/>
</svg>
