<svg width="65" height="65" viewBox="0 0 65 65" fill="none" xmlns="http://www.w3.org/2000/svg">
<path d="M30.3755 2.13103C31.5478 0.955145 33.4522 0.955144 34.6245 2.13103L36.4694 3.98154C37.3285 4.8432 38.6229 5.10067 39.7463 4.63334L42.1589 3.6297C43.6919 2.99195 45.4514 3.72076 46.0845 5.25575L47.0808 7.67142C47.5447 8.79622 48.6421 9.52944 49.8588 9.52759L52.4718 9.52361C54.1322 9.52108 55.4789 10.8678 55.4764 12.5282L55.4724 15.1412C55.4706 16.3579 56.2038 17.4553 57.3286 17.9192L59.7442 18.9155C61.2792 19.5485 62.0081 21.3081 61.3703 22.8411L60.3667 25.2537C59.8993 26.3771 60.1568 27.6715 61.0185 28.5306L62.869 30.3755C64.0449 31.5478 64.0449 33.4522 62.869 34.6245L61.0185 36.4694C60.1568 37.3285 59.8993 38.6229 60.3667 39.7463L61.3703 42.1589C62.0081 43.6919 61.2792 45.4514 59.7442 46.0845L57.3286 47.0808C56.2038 47.5447 55.4706 48.6421 55.4724 49.8588L55.4764 52.4718C55.4789 54.1322 54.1322 55.4789 52.4718 55.4764L49.8588 55.4724C48.6421 55.4706 47.5447 56.2038 47.0808 57.3286L46.0845 59.7442C45.4514 61.2792 43.6919 62.0081 42.1589 61.3703L39.7463 60.3667C38.6229 59.8993 37.3285 60.1568 36.4694 61.0185L34.6245 62.869C33.4522 64.0449 31.5478 64.0449 30.3755 62.869L28.5306 61.0185C27.6715 60.1568 26.3771 59.8993 25.2537 60.3667L22.8411 61.3703C21.3081 62.0081 19.5486 61.2792 18.9155 59.7442L17.9192 57.3286C17.4553 56.2038 16.3579 55.4706 15.1412 55.4724L12.5282 55.4764C10.8678 55.4789 9.52108 54.1322 9.52361 52.4718L9.52759 49.8588C9.52944 48.6421 8.79623 47.5447 7.67142 47.0808L5.25576 46.0845C3.72076 45.4514 2.99195 43.6919 3.6297 42.1589L4.63334 39.7463C5.10067 38.6229 4.8432 37.3285 3.98154 36.4694L2.13103 34.6245C0.955145 33.4522 0.955144 31.5478 2.13103 30.3755L3.98154 28.5306C4.8432 27.6715 5.10067 26.3771 4.63334 25.2537L3.6297 22.8411C2.99195 21.3081 3.72076 19.5486 5.25576 18.9155L7.67142 17.9192C8.79622 17.4553 9.52944 16.3579 9.52759 15.1412L9.52361 12.5282C9.52108 10.8678 10.8678 9.52108 12.5282 9.52361L15.1412 9.52759C16.3579 9.52944 17.4553 8.79623 17.9192 7.67142L18.9155 5.25576C19.5485 3.72076 21.3081 2.99195 22.8411 3.6297L25.2537 4.63334C26.3771 5.10067 27.6715 4.8432 28.5306 3.98154L30.3755 2.13103Z" stroke="#04B46F" stroke-width="2"/>
<path d="M24.458 28.2V38H21.742L18.018 33.548V38H14.798V28.2H17.514L21.238 32.652V28.2H24.458ZM34.198 35.508V38H26.05V28.2H34.016V30.692H29.298V31.84H33.442V34.22H29.298V35.508H34.198ZM51.2792 28.2L48.1432 38H44.6012L43.0192 32.764L41.3532 38H37.8112L34.6752 28.2H38.0772L39.7852 33.772L41.5912 28.2H44.6292L46.3372 33.842L48.1432 28.2H51.2792Z" fill="#04B46F"/>
</svg>
