<svg width="72" height="72" viewBox="0 0 72 72" fill="none" xmlns="http://www.w3.org/2000/svg">
<path d="M33.8755 2.13103C35.0478 0.955145 36.9522 0.955144 38.1245 2.13103L40.5498 4.56371C41.4089 5.42536 42.7033 5.68284 43.8267 5.21551L46.9983 3.89612C48.5313 3.25837 50.2908 3.98718 50.9239 5.52218L52.2336 8.6978C52.6976 9.8226 53.7949 10.5558 55.0116 10.554L58.4467 10.5487C60.1071 10.5462 61.4538 11.8929 61.4513 13.5533L61.446 16.9884C61.4442 18.2051 62.1774 19.3025 63.3022 19.7664L66.4778 21.0761C68.0128 21.7092 68.7416 23.4687 68.1039 25.0017L66.7845 28.1734C66.3172 29.2967 66.5746 30.5911 67.4363 31.4502L69.869 33.8755C71.0449 35.0478 71.0449 36.9522 69.869 38.1245L67.4363 40.5498C66.5746 41.4089 66.3172 42.7033 66.7845 43.8266L68.1039 46.9983C68.7416 48.5313 68.0128 50.2908 66.4778 50.9239L63.3022 52.2336C62.1774 52.6976 61.4442 53.7949 61.446 55.0116L61.4513 58.4467C61.4538 60.1071 60.1071 61.4538 58.4467 61.4513L55.0116 61.446C53.7949 61.4442 52.6976 62.1774 52.2336 63.3022L50.9239 66.4778C50.2908 68.0128 48.5313 68.7416 46.9983 68.1039L43.8266 66.7845C42.7033 66.3172 41.4089 66.5746 40.5498 67.4363L38.1245 69.869C36.9522 71.0449 35.0478 71.0449 33.8755 69.869L31.4502 67.4363C30.5911 66.5746 29.2967 66.3172 28.1734 66.7845L25.0017 68.1039C23.4687 68.7416 21.7092 68.0128 21.0761 66.4778L19.7664 63.3022C19.3025 62.1774 18.2051 61.4442 16.9884 61.446L13.5533 61.4513C11.8929 61.4538 10.5462 60.1071 10.5487 58.4467L10.554 55.0116C10.5558 53.7949 9.8226 52.6976 8.6978 52.2336L5.52218 50.9239C3.98718 50.2908 3.25837 48.5313 3.89612 46.9983L5.21551 43.8267C5.68284 42.7033 5.42536 41.4089 4.56371 40.5498L2.13103 38.1245C0.955145 36.9522 0.955144 35.0478 2.13103 33.8755L4.56371 31.4502C5.42536 30.5911 5.68284 29.2967 5.21551 28.1733L3.89612 25.0017C3.25837 23.4687 3.98718 21.7092 5.52218 21.0761L8.6978 19.7664C9.8226 19.3025 10.5558 18.2051 10.554 16.9884L10.5487 13.5533C10.5462 11.8929 11.8929 10.5462 13.5533 10.5487L16.9884 10.554C18.2051 10.5558 19.3025 9.8226 19.7664 8.6978L21.0761 5.52218C21.7092 3.98718 23.4687 3.25837 25.0017 3.89612L28.1733 5.21551C29.2967 5.68284 30.5911 5.42536 31.4502 4.56371L33.8755 2.13103Z" fill="#477BFF"/>
<path d="M42.7952 18.3331H38.1024C38.5968 17.7688 38.895 17.0433 38.895 16.2526C38.895 14.459 37.363 13 35.48 13C33.5968 13 32.0648 14.459 32.0648 16.2526C32.0648 17.0433 32.3629 17.7688 32.8574 18.3331H28.1646L25.2461 33H45.7137L42.7952 18.3331ZM35.48 14.1719C36.6845 14.1719 37.6645 15.1053 37.6645 16.2526C37.6645 17.3997 36.6845 18.3331 35.48 18.3331C34.2753 18.3331 33.2952 17.3997 33.2952 16.2526C33.2952 15.1053 34.2753 14.1719 35.48 14.1719Z" fill="white"/>
<path d="M35.5046 23.3354H34.108L32.1555 25.1924V23.3354H31.1519V28.0187H32.1555V26.418L32.6616 25.9481L34.1912 28.0187H35.4867L33.3782 25.2913L35.5046 23.3354Z" fill="#408BFB"/>
<path d="M37.4905 26.3341H38.8166V26.8477C38.71 26.9218 38.5649 26.9944 38.3837 27.0641C38.1632 27.1491 37.9341 27.1921 37.7031 27.1921C37.4386 27.1921 37.1854 27.1358 36.9504 27.0247C36.7238 26.9178 36.5556 26.7579 36.4364 26.5357C36.3134 26.3067 36.251 26.0129 36.251 25.6628C36.251 25.3791 36.3039 25.1131 36.4076 24.8731C36.4662 24.7396 36.5497 24.6152 36.6557 24.5031C36.7568 24.3963 36.8945 24.3078 37.0645 24.2402C37.2376 24.1714 37.4493 24.1364 37.6938 24.1364C37.8929 24.1364 38.0754 24.1692 38.2361 24.2339C38.389 24.2954 38.5062 24.3761 38.5846 24.4736C38.6695 24.5792 38.743 24.7315 38.8033 24.9264L38.8597 25.1087L39.7837 24.8673L39.7338 24.6828C39.6491 24.3685 39.5215 24.1077 39.3546 23.9074C39.1833 23.7018 38.9467 23.5404 38.6509 23.4275C38.3645 23.3181 38.0415 23.2627 37.6907 23.2627C37.2098 23.2627 36.7769 23.3591 36.404 23.5493C36.0224 23.744 35.7263 24.0447 35.5246 24.4431C35.3283 24.8304 35.229 25.2524 35.229 25.698C35.229 26.149 35.3296 26.5644 35.5285 26.9323C35.7318 27.3089 36.0367 27.6005 36.435 27.7991C36.8248 27.9937 37.2628 28.0924 37.7369 28.0924C38.0882 28.0924 38.4354 28.0315 38.7688 27.9113C39.0991 27.7924 39.4229 27.6133 39.7313 27.3791L39.808 27.3209V25.4395L37.4905 25.443V26.3341Z" fill="#408BFB"/>
</svg>
