<svg width="63" height="63" viewBox="0 0 63 63" fill="none" xmlns="http://www.w3.org/2000/svg">
<path d="M29.3755 1.13103C30.5478 -0.0448548 32.4522 -0.0448561 33.6245 1.13103L35.4694 2.98154C36.3285 3.8432 37.6229 4.10067 38.7463 3.63334L41.1589 2.6297C42.6919 1.99195 44.4514 2.72076 45.0845 4.25575L46.0808 6.67142C46.5447 7.79622 47.6421 8.52944 48.8588 8.52759L51.4718 8.52361C53.1322 8.52108 54.4789 9.86775 54.4764 11.5282L54.4724 14.1412C54.4706 15.3579 55.2038 16.4553 56.3286 16.9192L58.7442 17.9155C60.2792 18.5485 61.0081 20.3081 60.3703 21.8411L59.3667 24.2537C58.8993 25.3771 59.1568 26.6715 60.0185 27.5306L61.869 29.3755C63.0449 30.5478 63.0449 32.4522 61.869 33.6245L60.0185 35.4694C59.1568 36.3285 58.8993 37.6229 59.3667 38.7463L60.3703 41.1589C61.0081 42.6919 60.2792 44.4514 58.7442 45.0845L56.3286 46.0808C55.2038 46.5447 54.4706 47.6421 54.4724 48.8588L54.4764 51.4718C54.4789 53.1322 53.1322 54.4789 51.4718 54.4764L48.8588 54.4724C47.6421 54.4706 46.5447 55.2038 46.0808 56.3286L45.0845 58.7442C44.4515 60.2792 42.6919 61.0081 41.1589 60.3703L38.7463 59.3667C37.6229 58.8993 36.3285 59.1568 35.4694 60.0185L33.6245 61.869C32.4522 63.0449 30.5478 63.0449 29.3755 61.869L27.5306 60.0185C26.6715 59.1568 25.3771 58.8993 24.2537 59.3667L21.8411 60.3703C20.3081 61.0081 18.5485 60.2792 17.9155 58.7442L16.9192 56.3286C16.4553 55.2038 15.3579 54.4706 14.1412 54.4724L11.5282 54.4764C9.86776 54.4789 8.52108 53.1322 8.52361 51.4718L8.52759 48.8588C8.52944 47.6421 7.79623 46.5447 6.67142 46.0808L4.25576 45.0845C2.72076 44.4515 1.99195 42.6919 2.6297 41.1589L3.63334 38.7463C4.10067 37.6229 3.8432 36.3285 2.98154 35.4694L1.13103 33.6245C-0.0448548 32.4522 -0.0448561 30.5478 1.13103 29.3755L2.98154 27.5306C3.8432 26.6715 4.10067 25.3771 3.63334 24.2537L2.6297 21.8411C1.99195 20.3081 2.72076 18.5485 4.25576 17.9155L6.67142 16.9192C7.79622 16.4553 8.52944 15.3579 8.52759 14.1412L8.52361 11.5282C8.52108 9.86775 9.86775 8.52108 11.5282 8.52361L14.1412 8.52759C15.3579 8.52944 16.4553 7.79623 16.9192 6.67142L17.9155 4.25576C18.5485 2.72076 20.3081 1.99195 21.8411 2.6297L24.2537 3.63334C25.3771 4.10067 26.6715 3.8432 27.5306 2.98154L29.3755 1.13103Z" fill="#EB5757"/>
</svg>
