<svg width="72" height="72" viewBox="0 0 72 72" fill="none" xmlns="http://www.w3.org/2000/svg">
<path d="M33.8755 2.13103C35.0478 0.955145 36.9522 0.955144 38.1245 2.13103L40.5498 4.56371C41.4089 5.42536 42.7033 5.68284 43.8267 5.21551L46.9983 3.89612C48.5313 3.25837 50.2908 3.98718 50.9239 5.52218L52.2336 8.6978C52.6976 9.8226 53.7949 10.5558 55.0116 10.554L58.4467 10.5487C60.1071 10.5462 61.4538 11.8929 61.4513 13.5533L61.446 16.9884C61.4442 18.2051 62.1774 19.3025 63.3022 19.7664L66.4778 21.0761C68.0128 21.7092 68.7416 23.4687 68.1039 25.0017L66.7845 28.1734C66.3172 29.2967 66.5746 30.5911 67.4363 31.4502L69.869 33.8755C71.0449 35.0478 71.0449 36.9522 69.869 38.1245L67.4363 40.5498C66.5746 41.4089 66.3172 42.7033 66.7845 43.8266L68.1039 46.9983C68.7416 48.5313 68.0128 50.2908 66.4778 50.9239L63.3022 52.2336C62.1774 52.6976 61.4442 53.7949 61.446 55.0116L61.4513 58.4467C61.4538 60.1071 60.1071 61.4538 58.4467 61.4513L55.0116 61.446C53.7949 61.4442 52.6976 62.1774 52.2336 63.3022L50.9239 66.4778C50.2908 68.0128 48.5313 68.7416 46.9983 68.1039L43.8266 66.7845C42.7033 66.3172 41.4089 66.5746 40.5498 67.4363L38.1245 69.869C36.9522 71.0449 35.0478 71.0449 33.8755 69.869L31.4502 67.4363C30.5911 66.5746 29.2967 66.3172 28.1734 66.7845L25.0017 68.1039C23.4687 68.7416 21.7092 68.0128 21.0761 66.4778L19.7664 63.3022C19.3025 62.1774 18.2051 61.4442 16.9884 61.446L13.5533 61.4513C11.8929 61.4538 10.5462 60.1071 10.5487 58.4467L10.554 55.0116C10.5558 53.7949 9.8226 52.6976 8.6978 52.2336L5.52218 50.9239C3.98718 50.2908 3.25837 48.5313 3.89612 46.9983L5.21551 43.8267C5.68284 42.7033 5.42536 41.4089 4.56371 40.5498L2.13103 38.1245C0.955145 36.9522 0.955144 35.0478 2.13103 33.8755L4.56371 31.4502C5.42536 30.5911 5.68284 29.2967 5.21551 28.1733L3.89612 25.0017C3.25837 23.4687 3.98718 21.7092 5.52218 21.0761L8.6978 19.7664C9.8226 19.3025 10.5558 18.2051 10.554 16.9884L10.5487 13.5533C10.5462 11.8929 11.8929 10.5462 13.5533 10.5487L16.9884 10.554C18.2051 10.5558 19.3025 9.8226 19.7664 8.6978L21.0761 5.52218C21.7092 3.98718 23.4687 3.25837 25.0017 3.89612L28.1733 5.21551C29.2967 5.68284 30.5911 5.42536 31.4502 4.56371L33.8755 2.13103Z" fill="#F48647"/>
<path d="M20.41 52.392H19.912V54H18.748V52.392H18.25L17.428 54H16.054L17.248 51.798L16.126 49.8H17.374L18.214 51.432H18.748V49.8H19.912V51.432H20.422L21.28 49.8H22.522L21.4 51.798L22.594 54H21.226L20.41 52.392ZM26.3493 53.082V54H22.9773V49.8H26.2713V50.718H24.1533V51.426H26.0193V52.314H24.1533V53.082H26.3493ZM29.0663 54.084C28.6263 54.084 28.2303 53.992 27.8783 53.808C27.5303 53.62 27.2563 53.36 27.0563 53.028C26.8563 52.696 26.7563 52.32 26.7563 51.9C26.7563 51.48 26.8563 51.104 27.0563 50.772C27.2563 50.44 27.5303 50.182 27.8783 49.998C28.2303 49.81 28.6263 49.716 29.0663 49.716C29.4503 49.716 29.7963 49.784 30.1043 49.92C30.4123 50.056 30.6683 50.252 30.8723 50.508L30.1163 51.192C29.8443 50.864 29.5143 50.7 29.1263 50.7C28.8983 50.7 28.6943 50.75 28.5143 50.85C28.3383 50.95 28.2003 51.092 28.1003 51.276C28.0043 51.456 27.9563 51.664 27.9563 51.9C27.9563 52.136 28.0043 52.346 28.1003 52.53C28.2003 52.71 28.3383 52.85 28.5143 52.95C28.6943 53.05 28.8983 53.1 29.1263 53.1C29.5143 53.1 29.8443 52.936 30.1163 52.608L30.8723 53.292C30.6683 53.548 30.4123 53.744 30.1043 53.88C29.7963 54.016 29.4503 54.084 29.0663 54.084ZM34.7578 50.742H33.4738V54H32.3038V50.742H31.0138V49.8H34.7578V50.742ZM37.0035 52.392H36.4635V54H35.2815V49.8H36.4635V51.432H37.0335L38.0355 49.8H39.2835L37.9695 51.828L39.2955 54H37.9575L37.0035 52.392ZM41.7171 54.084C41.2731 54.084 40.8731 53.99 40.5171 53.802C40.1651 53.614 39.8871 53.354 39.6831 53.022C39.4831 52.69 39.3831 52.316 39.3831 51.9C39.3831 51.484 39.4831 51.11 39.6831 50.778C39.8871 50.446 40.1651 50.186 40.5171 49.998C40.8731 49.81 41.2731 49.716 41.7171 49.716C42.1611 49.716 42.5591 49.81 42.9111 49.998C43.2671 50.186 43.5451 50.446 43.7451 50.778C43.9491 51.11 44.0511 51.484 44.0511 51.9C44.0511 52.316 43.9491 52.69 43.7451 53.022C43.5451 53.354 43.2671 53.614 42.9111 53.802C42.5591 53.99 42.1611 54.084 41.7171 54.084ZM41.7171 53.1C41.9291 53.1 42.1211 53.05 42.2931 52.95C42.4651 52.85 42.6011 52.71 42.7011 52.53C42.8011 52.346 42.8511 52.136 42.8511 51.9C42.8511 51.664 42.8011 51.456 42.7011 51.276C42.6011 51.092 42.4651 50.95 42.2931 50.85C42.1211 50.75 41.9291 50.7 41.7171 50.7C41.5051 50.7 41.3131 50.75 41.1411 50.85C40.9691 50.95 40.8331 51.092 40.7331 51.276C40.6331 51.456 40.5831 51.664 40.5831 51.9C40.5831 52.136 40.6331 52.346 40.7331 52.53C40.8331 52.71 40.9691 52.85 41.1411 52.95C41.3131 53.05 41.5051 53.1 41.7171 53.1ZM46.7323 54.084C46.2923 54.084 45.8963 53.992 45.5443 53.808C45.1963 53.62 44.9223 53.36 44.7223 53.028C44.5223 52.696 44.4223 52.32 44.4223 51.9C44.4223 51.48 44.5223 51.104 44.7223 50.772C44.9223 50.44 45.1963 50.182 45.5443 49.998C45.8963 49.81 46.2923 49.716 46.7323 49.716C47.1163 49.716 47.4623 49.784 47.7703 49.92C48.0783 50.056 48.3343 50.252 48.5383 50.508L47.7823 51.192C47.5103 50.864 47.1803 50.7 46.7923 50.7C46.5643 50.7 46.3603 50.75 46.1803 50.85C46.0043 50.95 45.8663 51.092 45.7663 51.276C45.6703 51.456 45.6223 51.664 45.6223 51.9C45.6223 52.136 45.6703 52.346 45.7663 52.53C45.8663 52.71 46.0043 52.85 46.1803 52.95C46.3603 53.05 46.5643 53.1 46.7923 53.1C47.1803 53.1 47.5103 52.936 47.7823 52.608L48.5383 53.292C48.3343 53.548 48.0783 53.744 47.7703 53.88C47.4623 54.016 47.1163 54.084 46.7323 54.084ZM52.4238 50.742H51.1398V54H49.9698V50.742H48.6798V49.8H52.4238V50.742ZM55.1135 51.138C55.6295 51.138 56.0275 51.254 56.3075 51.486C56.5875 51.714 56.7275 52.054 56.7275 52.506C56.7275 52.99 56.5715 53.36 56.2595 53.616C55.9475 53.872 55.5135 54 54.9575 54H52.9715V49.8H54.1415V51.138H55.1135ZM54.8795 53.148C55.0795 53.148 55.2375 53.094 55.3535 52.986C55.4735 52.878 55.5335 52.726 55.5335 52.53C55.5335 52.166 55.3155 51.984 54.8795 51.984H54.1415V53.148H54.8795Z" fill="white"/>
<path fill-rule="evenodd" clip-rule="evenodd" d="M28.7764 18.5612C27.2434 17.7357 25.8771 17 23 17V14C26.6188 14 28.5066 15.0086 30.2164 15.9293L30.2383 15.9411C31.7707 16.7663 33.1333 17.5 36 17.5C38.8771 17.5 40.2434 16.7643 41.7764 15.9388L41.7941 15.9293C43.5027 15.0093 45.3874 14 49 14V17C46.1333 17 44.7707 17.7337 43.2383 18.5589L43.2164 18.5707C41.5066 19.4914 39.6188 20.5 36 20.5C32.3874 20.5 30.5027 19.4907 28.7941 18.5707L28.7764 18.5612Z" fill="white"/>
<path fill-rule="evenodd" clip-rule="evenodd" d="M29.0419 29.9268C27.4968 29.4514 26.0298 29 23 29V26C26.4627 26 28.2496 26.5443 29.9463 27.0663L29.9731 27.0746C31.5171 27.5497 32.9806 28 36 28C39.0298 28 40.4968 27.5486 42.0419 27.0732L42.0641 27.0663C43.7601 26.5445 45.5438 26 49 26V29C45.9806 29 44.5171 29.4503 42.9731 29.9254L42.9463 29.9337C41.2496 30.4557 39.4627 31 36 31C32.5438 31 30.7601 30.4555 29.0641 29.9337L29.0419 29.9268Z" fill="white"/>
<path fill-rule="evenodd" clip-rule="evenodd" d="M28.8546 24.3518C27.3233 23.645 25.9259 23 23 23V20C26.567 20 28.4238 20.8488 30.1338 21.6381L30.1602 21.6503C31.6908 22.3567 33.0845 23 36 23C38.9259 23 40.3233 22.355 41.8546 21.6482L41.8766 21.6381C43.5856 20.8493 45.4392 20 49 20V23C46.0845 23 44.6908 23.6433 43.1602 24.3497L43.1338 24.3619C41.4238 25.1512 39.567 26 36 26C32.4392 26 30.5856 25.1507 28.8766 24.3619L28.8546 24.3518Z" fill="white"/>
</svg>
