<svg width="24" height="24" viewBox="0 0 24 24" fill="none" xmlns="http://www.w3.org/2000/svg">
<g clip-path="url(#clip0)">
<path d="M23.39 5.68616C22.2618 3.03427 19.7857 1.327 16.9276 1.23049C16.8306 1.22727 16.7331 1.22559 16.6354 1.22559C14.9887 1.22559 13.3725 1.70786 11.9999 2.59734C10.627 1.70786 9.0111 1.22559 7.36435 1.22559C7.26645 1.22559 7.16933 1.22727 7.07235 1.23049C4.21441 1.32716 1.73808 3.03442 0.609916 5.68616C-0.540616 8.38983 -0.0402649 11.4203 1.91533 13.5946C1.93494 13.6166 1.95547 13.6377 1.97677 13.6581L11.2072 22.4573C11.4291 22.6688 11.7146 22.7745 12 22.7745C12.2854 22.7745 12.571 22.6688 12.7928 22.4573L22.0233 13.6579C22.0447 13.6375 22.0651 13.6164 22.0847 13.5945C24.0403 11.4203 24.5405 8.38998 23.39 5.68616ZM20.4041 12.0266L12 20.0382L3.59578 12.0266C2.26754 10.5262 1.9331 8.44544 2.72438 6.5859C3.51091 4.73769 5.16532 3.59421 7.15002 3.52711C7.22126 3.52466 7.29281 3.52359 7.3645 3.52359C8.79708 3.52359 10.1417 3.99621 11.2552 4.89059C11.6469 5.22456 12.2265 5.26087 12.6609 4.95509C12.6838 4.939 12.706 4.92215 12.7276 4.90453C13.8442 4.00111 15.1955 3.52359 16.6356 3.52359C16.7074 3.52359 16.7791 3.52481 16.8502 3.52711C18.8349 3.59421 20.4891 4.73754 21.2757 6.58575C22.0668 8.44544 21.7324 10.5262 20.4041 12.0266Z" fill="#99A3AE"/>
</g>
<defs>
<clipPath id="clip0">
<rect width="24" height="24" fill="white"/>
</clipPath>
</defs>
</svg>
