<svg width="20" height="17" viewBox="0 0 20 17" fill="none" xmlns="http://www.w3.org/2000/svg">
<g clip-path="url(#clip0)">
<path d="M20.0027 0.544006C19.9066 0.971499 19.805 1.45177 19.6977 1.93204C18.8956 5.52614 18.0936 9.12553 17.2916 12.7196C17.0656 13.7329 16.8397 14.7463 16.6138 15.7596C16.5065 16.2451 16.1054 16.3929 15.6705 16.0974C14.2529 15.1421 12.8408 14.1816 11.4232 13.221C11.361 13.1788 11.3045 13.1366 11.2424 13.0996C10.7849 12.7935 10.4912 12.7988 10.0507 13.1366C9.30511 13.7013 8.5652 14.2713 7.81965 14.836C7.76882 14.8729 7.71799 14.9151 7.66715 14.9521C7.26614 15.2318 6.87642 15.121 6.72957 14.6724C6.40762 13.7171 6.09133 12.7671 5.77503 11.8119C5.53216 11.0835 5.278 10.3605 5.05207 9.62691C4.99559 9.44219 4.88828 9.35775 4.70754 9.29441C3.32375 8.81942 1.94561 8.33915 0.567465 7.85888C0.505335 7.83777 0.443206 7.81666 0.381077 7.79555C0.1608 7.70055 0.00830078 7.55805 0.00830078 7.31528C0.00830078 7.07251 0.143856 6.91945 0.375429 6.83501C0.962833 6.61862 1.54459 6.40752 2.13199 6.19641C7.79141 4.14867 13.4565 2.11148 19.1215 0.0690144C19.6186 -0.110427 19.997 0.0742921 20.0027 0.544006ZM6.0292 9.26802C6.04049 9.34191 6.04049 9.44746 6.06874 9.54774C6.37938 10.5663 6.68438 11.5902 7.01197 12.6088C7.04021 12.7038 7.17577 12.7671 7.26049 12.8516C7.34521 12.7566 7.47512 12.6774 7.49771 12.5719C7.57678 12.1496 7.63891 11.7221 7.67845 11.2947C7.73493 10.7088 7.98345 10.2391 8.45789 9.83274C10.8019 7.82194 13.1232 5.79003 15.4559 3.76867C15.5293 3.70534 15.6141 3.63673 15.6649 3.55757C15.6931 3.51534 15.6875 3.4309 15.6592 3.39396C15.631 3.35701 15.5406 3.34118 15.4898 3.35701C15.4107 3.37812 15.3373 3.42562 15.2695 3.46784C14.0043 4.19617 12.7392 4.92449 11.474 5.65281C9.84733 6.58696 8.22632 7.52111 6.59966 8.45526C6.28336 8.62942 6.04049 8.85636 6.0292 9.26802Z" fill="#99A3AE"/>
</g>
<defs>
<clipPath id="clip0">
<rect width="20" height="16.25" fill="white"/>
</clipPath>
</defs>
</svg>
