<svg width="24" height="16" viewBox="0 0 24 16" fill="none" xmlns="http://www.w3.org/2000/svg">
<path d="M22.9091 9.09069C23.5115 9.09074 24 8.6023 24 7.99982C24 7.39733 23.5115 6.9089 22.9091 6.9089C14.7873 6.9089 8.66272 6.9089 1.09092 6.9089C0.488483 6.9089 4.54669e-05 7.39733 4.54406e-05 7.99982C4.54143e-05 8.6023 0.488481 9.09074 1.09096 9.09074C9.48218 9.09074 14.6402 9.09069 22.9091 9.09069Z" fill="#99A3AE"/>
<path d="M22.9091 2.49991C23.5115 2.49996 24 2.01152 24 1.40903C24 0.806552 23.5115 0.318115 22.9091 0.318115C14.7873 0.318115 8.66272 0.318115 1.09092 0.318114C0.488483 0.318114 4.5755e-05 0.806551 4.57287e-05 1.40903C4.57023e-05 2.01152 0.488481 2.49995 1.09097 2.49995C9.48218 2.49996 14.6402 2.49991 22.9091 2.49991Z" fill="#99A3AE"/>
<path d="M22.9091 15.6817C23.5116 15.6818 24 15.1933 24 14.5909C24 13.9884 23.5116 13.4999 22.9091 13.4999C14.7873 13.4999 8.66272 13.4999 1.09092 13.4999C0.488483 13.4999 4.51788e-05 13.9884 4.51525e-05 14.5909C4.51262e-05 15.1933 0.488481 15.6818 1.09096 15.6818C9.48218 15.6818 14.6403 15.6817 22.9091 15.6817Z" fill="#99A3AE"/>
</svg>
