<svg width="20" height="20" viewBox="0 0 20 20" fill="none" xmlns="http://www.w3.org/2000/svg">
<path d="M6.7271 18.3333C6.65442 18.3333 6.58006 18.3333 6.50738 18.3333C6.46174 18.3224 6.41611 18.307 6.37047 18.2993C5.63694 18.1773 5.16369 17.4765 5.37158 16.819C5.44595 16.5843 5.593 16.396 5.77892 16.2262C6.5547 15.5177 7.33049 14.8076 8.10628 14.0975C8.13332 14.0728 8.15867 14.0466 8.19417 14.0126C8.1536 13.9988 8.12656 13.9864 8.09783 13.9802C7.23246 13.7934 6.42625 13.4801 5.66567 13.0602C5.11806 12.7577 4.88144 12.2251 5.05721 11.6648C5.20426 11.1971 5.71976 10.8405 6.25216 10.8343C6.53104 10.8312 6.78288 10.8992 7.01781 11.0319C7.86627 11.512 8.79418 11.762 9.788 11.8037C10.1565 11.8192 10.5249 11.7945 10.8883 11.742C11.6337 11.6324 12.3334 11.4024 12.9723 11.0334C13.4996 10.7294 14.1148 10.7849 14.534 11.1106C15.2117 11.6385 15.1391 12.5848 14.3886 13.0216C13.6247 13.4662 12.7982 13.7796 11.9176 13.9756C11.8821 13.9833 11.8466 13.9957 11.7976 14.0111C11.8331 14.0451 11.8568 14.0698 11.8821 14.0929C12.6714 14.8138 13.459 15.5347 14.2484 16.254C14.5391 16.5179 14.6946 16.8298 14.6641 17.2079C14.6269 17.6803 14.3684 18.0184 13.9019 18.2159C13.7717 18.2715 13.6247 18.2931 13.4844 18.3317C13.4117 18.3317 13.3373 18.3317 13.2647 18.3317C13.2495 18.3271 13.2343 18.3178 13.2173 18.3163C12.8911 18.2777 12.6258 18.1372 12.3959 17.9242C11.6252 17.2157 10.8511 16.5118 10.0787 15.8063C10.0534 15.7832 10.0263 15.7616 9.99589 15.7353C9.96884 15.7585 9.94687 15.777 9.9249 15.7971C9.1339 16.5195 8.3429 17.2419 7.55359 17.9643C7.35922 18.1418 7.12767 18.2576 6.85724 18.3039C6.8133 18.3132 6.76935 18.324 6.7271 18.3333Z" fill="white"/>
<path d="M14.1668 5.84049C14.1794 8.10733 12.3078 10.0375 9.92982 9.99953C7.67371 9.96634 5.81154 8.11049 5.83369 5.79464C5.85268 3.54519 7.68162 1.63244 10.0675 1.66721C12.3758 1.70199 14.1794 3.58471 14.1668 5.84049ZM10.001 4.10004C9.07547 4.07791 8.26226 4.87463 8.26068 5.82942C8.25909 6.77947 9.04699 7.57303 9.99944 7.57461C10.955 7.57619 11.7429 6.77473 11.7429 5.83574C11.7445 4.89676 10.9471 4.07791 10.001 4.10004Z" fill="white"/>
</svg>
