<svg width="20" height="20" viewBox="0 0 20 20" fill="none" xmlns="http://www.w3.org/2000/svg">
<path d="M0 20C0.0775654 19.7671 0.150938 19.5487 0.226407 19.3304C0.519898 18.4632 0.813389 17.5982 1.10688 16.7331C1.31861 16.1092 1.53034 15.4874 1.73579 14.8615C1.75046 14.8199 1.73788 14.7575 1.71482 14.7201C1.35215 14.1046 1.05657 13.4599 0.834352 12.782C0.631005 12.1664 0.501031 11.5322 0.417176 10.8896C0.343803 10.3177 0.331225 9.74172 0.364767 9.16777C0.410887 8.41082 0.545054 7.66428 0.767269 6.93644C1.13413 5.73656 1.71063 4.64481 2.50096 3.66536C3.17389 2.82939 3.96212 2.12235 4.86775 1.54216C5.90336 0.880876 7.02701 0.423381 8.23661 0.194634C8.73554 0.098976 9.24496 0.0532265 9.75228 0.0178747C10.8864 -0.0569881 11.9933 0.107294 13.0771 0.435859C14.0079 0.716594 14.8758 1.13458 15.6808 1.67941C16.8023 2.43636 17.7289 3.38046 18.4585 4.5138C19.1021 5.51405 19.5507 6.5954 19.7876 7.75786C19.8714 8.16752 19.9133 8.58551 19.9595 8.99933C19.9888 9.25719 20.0035 9.51713 19.9993 9.77707C19.9825 10.8667 19.8169 11.9335 19.45 12.965C18.9113 14.4851 18.0497 15.7952 16.8631 16.8932C15.6913 17.9787 14.3244 18.7315 12.7794 19.1578C12.1673 19.3262 11.5405 19.4281 10.9053 19.4739C9.84871 19.5487 8.80891 19.4656 7.7817 19.2119C6.98508 19.0143 6.2262 18.7211 5.50295 18.3385C5.45264 18.3114 5.37298 18.3052 5.31847 18.3218C4.69585 18.5152 4.07533 18.7169 3.4548 18.9145C2.32906 19.2722 1.20122 19.6298 0.075469 19.9875C0.0566018 19.9896 0.0356382 19.9917 0 20ZM2.49257 17.5566C2.57643 17.5358 2.62674 17.5254 2.67496 17.5108C3.58478 17.2218 4.49879 16.9389 5.40442 16.6374C5.59938 16.5729 5.73774 16.6021 5.90336 16.704C7.0899 17.436 8.38964 17.8207 9.77953 17.8955C10.3812 17.9288 10.9786 17.8851 11.5719 17.7832C12.4419 17.6356 13.2658 17.3528 14.0435 16.9369C15.0812 16.3816 15.9617 15.6413 16.6808 14.7118C17.295 13.9174 17.7478 13.0419 18.0413 12.0833C18.2321 11.4573 18.3432 10.8168 18.3746 10.1659C18.3935 9.76251 18.3683 9.35701 18.339 8.95358C18.295 8.34012 18.1587 7.74122 17.9595 7.16103C17.5801 6.05473 16.9931 5.06487 16.186 4.21227C14.9995 2.95624 13.5635 2.13899 11.8633 1.77923C11.0059 1.59623 10.1422 1.55256 9.27221 1.6503C8.51962 1.73348 7.79218 1.91648 7.0899 2.20137C6.01237 2.63807 5.0711 3.27025 4.2661 4.0979C3.4024 4.98585 2.77139 6.0173 2.37727 7.19222C2.1299 7.93046 1.98945 8.68532 1.9622 9.46098C1.93494 10.2262 2.0146 10.9811 2.20328 11.7256C2.45274 12.703 2.86573 13.6055 3.45271 14.429C3.49254 14.483 3.52189 14.5309 3.49464 14.6078C3.19276 15.4895 2.89508 16.3733 2.5953 17.255C2.56595 17.3445 2.5345 17.4339 2.49257 17.5566Z" fill="#99A3AE"/>
<path d="M5.26367 7.40072C5.27415 6.50445 5.63682 5.7787 6.31185 5.19643C6.54874 4.99056 6.83175 4.98432 7.12314 5.00927C7.21958 5.01759 7.31811 5.03007 7.41454 5.02799C7.6074 5.02383 7.74786 5.09869 7.82333 5.27545C7.91138 5.48548 7.99314 5.69967 8.07489 5.91386C8.26357 6.40671 8.45014 6.89748 8.63672 7.39032C8.68913 7.52757 8.67445 7.6565 8.60527 7.78959C8.44176 8.10776 8.186 8.35106 7.94073 8.60061C7.74367 8.80232 7.72061 8.91669 7.85897 9.16416C8.50465 10.3245 9.37464 11.2686 10.5528 11.9133C10.775 12.036 11.0077 12.1441 11.2383 12.2502C11.4375 12.3417 11.5821 12.3105 11.7268 12.1483C12.0119 11.8259 12.297 11.5015 12.5758 11.173C12.6848 11.044 12.8211 11.0212 12.9636 11.0752C13.1628 11.1501 13.3556 11.2374 13.5443 11.3352C14.0369 11.591 14.5212 11.8592 15.0139 12.1108C15.2088 12.2107 15.2927 12.3437 15.2675 12.56C15.2277 12.8886 15.1711 13.213 15.0222 13.5104C14.8503 13.8514 14.5443 14.0552 14.2277 14.2423C13.7393 14.5293 13.2026 14.6583 12.6429 14.6104C12.3284 14.5834 12.014 14.4836 11.7163 14.3713C11.123 14.1467 10.5339 13.9075 9.95952 13.6414C9.38093 13.3731 8.8757 12.9842 8.39773 12.5663C7.45437 11.7386 6.71226 10.7488 6.054 9.69236C5.706 9.13296 5.43767 8.54446 5.31818 7.89565C5.28673 7.73345 5.28044 7.565 5.26367 7.40072Z" fill="#99A3AE"/>
</svg>
