<svg width="10" height="10" viewBox="0 0 10 10" fill="none" xmlns="http://www.w3.org/2000/svg">
<path d="M0.344996 5.55667C0.236246 5.68333 0.18333 5.84458 0.196246 6.01125C0.209163 6.17792 0.28583 6.32958 0.412913 6.43792L3.4975 9.08208C3.61208 9.18 3.75416 9.2325 3.90333 9.2325C3.92166 9.2325 3.94041 9.23167 3.95916 9.23C4.12791 9.215 4.28 9.13458 4.3875 9.00417L9.66333 2.58292C9.76916 2.45375 9.81875 2.29125 9.8025 2.125C9.78583 1.95875 9.70625 1.80875 9.57708 1.7025L8.61125 0.909167C8.345 0.690834 7.95083 0.729167 7.73166 0.995417L3.67125 5.9375L2.03958 4.53958C1.77791 4.31625 1.38291 4.34583 1.15833 4.6075L0.344996 5.55667Z" fill="white"/>
</svg>
