<svg width="20" height="20" viewBox="0 0 20 20" fill="none" xmlns="http://www.w3.org/2000/svg">
<path fill-rule="evenodd" clip-rule="evenodd" d="M11.2584 7.49537C11.2524 7.88305 11.2451 8.26367 11.2404 8.65134C11.2306 8.90408 11.2484 9.15717 11.2937 9.40554C11.3174 9.54041 11.3734 9.66661 11.4563 9.77207C11.4877 9.83055 11.5414 9.87184 11.6037 9.88534C11.666 9.89884 11.7307 9.88325 11.7814 9.84256C11.8884 9.76894 11.9862 9.68132 12.0725 9.58176C12.3361 9.25748 12.5678 8.90557 12.764 8.53152C13.2253 7.69874 13.6092 6.82061 13.9104 5.90944C13.9328 5.84127 13.9607 5.77524 13.9937 5.71208C14.063 5.5634 14.2089 5.47214 14.3654 5.47947C14.6106 5.47947 14.8557 5.47947 15.0982 5.47243C15.6078 5.47243 16.1174 5.46538 16.6304 5.46538C16.8029 5.45829 16.9758 5.46536 17.1473 5.48652C17.2686 5.4944 17.3789 5.56392 17.4432 5.67309C17.5075 5.78226 17.5178 5.91759 17.4711 6.03631C17.4277 6.2692 17.354 6.49457 17.2519 6.70593C17.0031 7.24253 16.7166 7.75853 16.3945 8.24957C16.0535 8.78527 15.7031 9.30686 15.3633 9.84256C15.2636 10.005 15.1745 10.1746 15.0969 10.3501C14.9883 10.5798 15.0099 10.8544 15.1528 11.062C15.3069 11.2919 15.4804 11.5065 15.6711 11.7034C16.1215 12.1726 16.5406 12.6743 16.9255 13.2047C17.0991 13.4475 17.2505 13.7071 17.3778 13.9801C17.4179 14.0704 17.4492 14.1649 17.4711 14.262C17.5237 14.4546 17.4549 14.6613 17.2999 14.7766C17.1465 14.8971 16.9613 14.9637 16.7703 14.9669C16.1361 14.9739 15.5045 14.981 14.8677 14.9951C14.6617 15.0119 14.4545 14.9855 14.2582 14.9175C13.9435 14.7791 13.6657 14.5613 13.4488 14.2832C13.2189 14.0012 13.0038 13.7052 12.7753 13.4232C12.6167 13.2259 12.4495 13.0426 12.281 12.8523C12.2256 12.7973 12.1621 12.7521 12.0931 12.7184C11.9322 12.6169 11.725 12.6594 11.6115 12.8171C11.5108 12.9417 11.4377 13.0886 11.3977 13.247C11.3199 13.5219 11.2751 13.8061 11.2644 14.0929C11.2571 14.2197 11.2558 14.3537 11.2398 14.4876C11.227 14.6754 11.1087 14.8366 10.94 14.8964C10.8436 14.9347 10.7419 14.9562 10.6389 14.9598C10.3491 14.9669 10.0593 14.9669 9.76889 14.9669C9.20198 14.9519 8.64355 14.8178 8.12614 14.5722C7.2795 14.1777 6.53841 13.5674 5.9691 12.7959C5.45486 12.116 4.99475 11.3923 4.59348 10.632C3.82099 9.18392 3.14346 7.68137 2.56568 6.13499C2.53516 6.04885 2.51567 5.95877 2.50773 5.86715C2.47544 5.73015 2.54702 5.58966 2.67293 5.54291C2.78845 5.49969 2.90905 5.4736 3.03133 5.46538C3.63087 5.45833 4.23042 5.45833 4.82997 5.45128H5.01116C5.32461 5.43776 5.60591 5.65348 5.69131 5.97288C6.06906 7.08307 6.56381 8.14471 7.1662 9.1377C7.29469 9.33821 7.43626 9.52899 7.58988 9.70863C7.65725 9.7842 7.73867 9.8442 7.82903 9.88485C7.89676 9.91833 7.97456 9.92066 8.04397 9.89128C8.11338 9.86191 8.1682 9.80345 8.19542 9.72978C8.26853 9.57744 8.31631 9.41292 8.33664 9.24342C8.3966 8.84259 8.42091 8.4367 8.40926 8.03107C8.40126 7.6152 8.38128 7.19933 8.35863 6.78346C8.34734 6.66915 8.32729 6.55601 8.29867 6.44513C8.24464 6.12841 8.02541 5.87158 7.7331 5.78256C7.66955 5.76263 7.60507 5.74616 7.53991 5.73322C7.4693 5.71208 7.45331 5.68388 7.48795 5.60635C7.56036 5.45837 7.67193 5.3359 7.80904 5.25392C7.96603 5.15791 8.14034 5.09788 8.32066 5.0777C8.85747 5.00377 9.39959 4.98253 9.9401 5.01427C10.213 5.01657 10.4846 5.05445 10.7488 5.12704C11.0547 5.19733 11.271 5.48666 11.2651 5.81781C11.2902 6.1626 11.2925 6.50883 11.2718 6.85395C11.2664 7.06541 11.2578 7.28391 11.2504 7.49537H11.2584Z" fill="#4C5E70"/>
</svg>
